<svg width="62" height="9" viewBox="0 0 62 9" fill="none" xmlns="http://www.w3.org/2000/svg">
<path d="M1.01601 2.20001H0.0960083V1.40001H2.81601V2.20001H1.89601V7.00001H1.01601V2.20001Z" fill="white"/>
<path d="M3.24207 1.40001H4.54607C4.9994 1.40001 5.33007 1.50667 5.53807 1.72001C5.74607 1.92801 5.85007 2.25067 5.85007 2.68801V3.03201C5.85007 3.61334 5.65807 3.98134 5.27407 4.13601V4.15201C5.4874 4.21601 5.63674 4.34667 5.72207 4.54401C5.81274 4.74134 5.85807 5.00534 5.85807 5.33601V6.32001C5.85807 6.48001 5.8634 6.61067 5.87407 6.71201C5.88474 6.80801 5.9114 6.90401 5.95407 7.00001H5.05807C5.02607 6.90934 5.00474 6.82401 4.99407 6.74401C4.9834 6.66401 4.97807 6.52001 4.97807 6.31201V5.28801C4.97807 5.03201 4.9354 4.85334 4.85007 4.75201C4.77007 4.65067 4.62874 4.60001 4.42607 4.60001H4.12207V7.00001H3.24207V1.40001ZM4.44207 3.80001C4.61807 3.80001 4.74874 3.75467 4.83407 3.66401C4.92474 3.57334 4.97007 3.42134 4.97007 3.20801V2.77601C4.97007 2.57334 4.93274 2.42667 4.85807 2.33601C4.78874 2.24534 4.67674 2.20001 4.52207 2.20001H4.12207V3.80001H4.44207Z" fill="white"/>
<path d="M7.74863 7.08001C7.32197 7.08001 6.99663 6.96001 6.77263 6.72001C6.54863 6.47467 6.43663 6.12534 6.43663 5.67201V1.40001H7.31663V5.73601C7.31663 5.92801 7.35397 6.06667 7.42863 6.15201C7.50863 6.23734 7.62063 6.28001 7.76463 6.28001C7.90863 6.28001 8.01797 6.23734 8.09263 6.15201C8.17263 6.06667 8.21263 5.92801 8.21263 5.73601V1.40001H9.06063V5.67201C9.06063 6.12534 8.94863 6.47467 8.72463 6.72001C8.50063 6.96001 8.1753 7.08001 7.74863 7.08001Z" fill="white"/>
<path d="M10.8314 7.08001C10.4047 7.08001 10.0821 6.96001 9.86338 6.72001C9.64472 6.47467 9.53538 6.12534 9.53538 5.67201V5.35201H10.3674V5.73601C10.3674 6.09867 10.5194 6.28001 10.8234 6.28001C10.9727 6.28001 11.0847 6.23734 11.1594 6.15201C11.2394 6.06134 11.2794 5.91734 11.2794 5.72001C11.2794 5.48534 11.2261 5.28001 11.1194 5.10401C11.0127 4.92267 10.8154 4.70667 10.5274 4.45601C10.1647 4.13601 9.91138 3.84801 9.76738 3.59201C9.62338 3.33067 9.55138 3.03734 9.55138 2.71201C9.55138 2.26934 9.66338 1.92801 9.88738 1.68801C10.1114 1.44267 10.4367 1.32001 10.8634 1.32001C11.2847 1.32001 11.6021 1.44267 11.8154 1.68801C12.0341 1.92801 12.1434 2.27467 12.1434 2.72801V2.96001H11.3114V2.67201C11.3114 2.48001 11.2741 2.34134 11.1994 2.25601C11.1247 2.16534 11.0154 2.12001 10.8714 2.12001C10.5781 2.12001 10.4314 2.29867 10.4314 2.65601C10.4314 2.85867 10.4847 3.04801 10.5914 3.22401C10.7034 3.40001 10.9034 3.61334 11.1914 3.86401C11.5594 4.18401 11.8127 4.47467 11.9514 4.73601C12.0901 4.99734 12.1594 5.30401 12.1594 5.65601C12.1594 6.11467 12.0447 6.46667 11.8154 6.71201C11.5914 6.95734 11.2634 7.08001 10.8314 7.08001Z" fill="white"/>
<path d="M13.3519 2.20001H12.4319V1.40001H15.1519V2.20001H14.2319V7.00001H13.3519V2.20001Z" fill="white"/>
<path d="M18.1713 0.600006H18.8913V8.60001H18.1713V0.600006Z" fill="white"/>
<path d="M22.1405 1.40001H23.0205V7.00001H22.1405V1.40001Z" fill="white"/>
<path d="M23.6796 1.40001H24.7836L25.6396 4.75201H25.6556V1.40001H26.4396V7.00001H25.5356L24.4796 2.91201H24.4636V7.00001H23.6796V1.40001Z" fill="white"/>
<path d="M26.8616 1.40001H27.7496L28.3256 5.74401H28.3416L28.9176 1.40001H29.7256L28.8776 7.00001H27.7096L26.8616 1.40001Z" fill="white"/>
<path d="M30.1483 1.40001H32.5483V2.20001H31.0283V3.68001H32.2363V4.48001H31.0283V6.20001H32.5483V7.00001H30.1483V1.40001Z" fill="white"/>
<path d="M34.2142 7.08001C33.7875 7.08001 33.4649 6.96001 33.2462 6.72001C33.0275 6.47467 32.9182 6.12534 32.9182 5.67201V5.35201H33.7502V5.73601C33.7502 6.09867 33.9022 6.28001 34.2062 6.28001C34.3555 6.28001 34.4675 6.23734 34.5422 6.15201C34.6222 6.06134 34.6622 5.91734 34.6622 5.72001C34.6622 5.48534 34.6089 5.28001 34.5022 5.10401C34.3955 4.92267 34.1982 4.70667 33.9102 4.45601C33.5475 4.13601 33.2942 3.84801 33.1502 3.59201C33.0062 3.33067 32.9342 3.03734 32.9342 2.71201C32.9342 2.26934 33.0462 1.92801 33.2702 1.68801C33.4942 1.44267 33.8195 1.32001 34.2462 1.32001C34.6675 1.32001 34.9849 1.44267 35.1982 1.68801C35.4169 1.92801 35.5262 2.27467 35.5262 2.72801V2.96001H34.6942V2.67201C34.6942 2.48001 34.6569 2.34134 34.5822 2.25601C34.5075 2.16534 34.3982 2.12001 34.2542 2.12001C33.9609 2.12001 33.8142 2.29867 33.8142 2.65601C33.8142 2.85867 33.8675 3.04801 33.9742 3.22401C34.0862 3.40001 34.2862 3.61334 34.5742 3.86401C34.9422 4.18401 35.1955 4.47467 35.3342 4.73601C35.4729 4.99734 35.5422 5.30401 35.5422 5.65601C35.5422 6.11467 35.4275 6.46667 35.1982 6.71201C34.9742 6.95734 34.6462 7.08001 34.2142 7.08001Z" fill="white"/>
<path d="M36.7348 2.20001H35.8148V1.40001H38.5348V2.20001H37.6148V7.00001H36.7348V2.20001Z" fill="white"/>
<path d="M41.5541 0.600006H42.2741V8.60001H41.5541V0.600006Z" fill="white"/>
<path d="M45.5233 1.40001H46.8193C47.2567 1.40001 47.5847 1.51734 47.8033 1.75201C48.022 1.98667 48.1313 2.33067 48.1313 2.78401V3.33601C48.1313 3.78934 48.022 4.13334 47.8033 4.36801C47.5847 4.60267 47.2567 4.72001 46.8193 4.72001H46.4033V7.00001H45.5233V1.40001ZM46.8193 3.92001C46.9633 3.92001 47.07 3.88001 47.1393 3.80001C47.214 3.72001 47.2513 3.58401 47.2513 3.39201V2.72801C47.2513 2.53601 47.214 2.40001 47.1393 2.32001C47.07 2.24001 46.9633 2.20001 46.8193 2.20001H46.4033V3.92001H46.8193Z" fill="white"/>
<path d="M48.6093 1.40001H49.9133C50.3666 1.40001 50.6973 1.50667 50.9053 1.72001C51.1133 1.92801 51.2173 2.25067 51.2173 2.68801V3.03201C51.2173 3.61334 51.0253 3.98134 50.6413 4.13601V4.15201C50.8546 4.21601 51.0039 4.34667 51.0893 4.54401C51.1799 4.74134 51.2253 5.00534 51.2253 5.33601V6.32001C51.2253 6.48001 51.2306 6.61067 51.2413 6.71201C51.2519 6.80801 51.2786 6.90401 51.3213 7.00001H50.4253C50.3933 6.90934 50.3719 6.82401 50.3613 6.74401C50.3506 6.66401 50.3453 6.52001 50.3453 6.31201V5.28801C50.3453 5.03201 50.3026 4.85334 50.2173 4.75201C50.1373 4.65067 49.9959 4.60001 49.7933 4.60001H49.4893V7.00001H48.6093V1.40001ZM49.8093 3.80001C49.9853 3.80001 50.1159 3.75467 50.2013 3.66401C50.2919 3.57334 50.3373 3.42134 50.3373 3.20801V2.77601C50.3373 2.57334 50.2999 2.42667 50.2253 2.33601C50.1559 2.24534 50.0439 2.20001 49.8893 2.20001H49.4893V3.80001H49.8093Z" fill="white"/>
<path d="M53.1078 7.08001C52.6758 7.08001 52.3452 6.95734 52.1158 6.71201C51.8865 6.46667 51.7718 6.12001 51.7718 5.67201V2.72801C51.7718 2.28001 51.8865 1.93334 52.1158 1.68801C52.3452 1.44267 52.6758 1.32001 53.1078 1.32001C53.5398 1.32001 53.8705 1.44267 54.0998 1.68801C54.3292 1.93334 54.4438 2.28001 54.4438 2.72801V5.67201C54.4438 6.12001 54.3292 6.46667 54.0998 6.71201C53.8705 6.95734 53.5398 7.08001 53.1078 7.08001ZM53.1078 6.28001C53.4118 6.28001 53.5638 6.09601 53.5638 5.72801V2.67201C53.5638 2.30401 53.4118 2.12001 53.1078 2.12001C52.8038 2.12001 52.6518 2.30401 52.6518 2.67201V5.72801C52.6518 6.09601 52.8038 6.28001 53.1078 6.28001Z" fill="white"/>
<path d="M55.0389 1.40001H57.3669V2.20001H55.9189V3.76001H57.0549V4.56001H55.9189V7.00001H55.0389V1.40001Z" fill="white"/>
<path d="M57.7889 1.40001H58.6689V7.00001H57.7889V1.40001Z" fill="white"/>
<path d="M60.016 2.20001H59.096V1.40001H61.816V2.20001H60.896V7.00001H60.016V2.20001Z" fill="white"/>
</svg>
